<?xml version="1.0" encoding="utf-8"?>
<!-- Generator: Adobe Illustrator 24.1.1, SVG Export Plug-In . SVG Version: 6.00 Build 0)  -->
<svg version="1.1" id="Layer_1" xmlns="http://www.w3.org/2000/svg" xmlns:xlink="http://www.w3.org/1999/xlink" x="0px" y="0px"
	 viewBox="0 0 512 512" style="enable-background:new 0 0 512 512;" xml:space="preserve">
<style type="text/css">
	.st0{fill-rule:evenodd;clip-rule:evenodd;fill:#D0D0D0;}
	.st1{fill-rule:evenodd;clip-rule:evenodd;fill:#1D1D1D;}
</style>
<g>
	<path class="st0" d="M56.89,56.89v398.22h398.22V56.89H56.89z M170.67,398.22h-56.89V199.11h56.89V398.22z M284.44,398.22h-56.89
		V113.78h56.89V398.22z M398.22,398.22h-56.89V284.44h56.89V398.22z"/>
	<path class="st1" d="M455.11,0H56.89C25.58,0,0,25.61,0,56.89v398.22C0,486.42,25.58,512,56.89,512h398.22
		c31.28,0,56.89-25.58,56.89-56.89V56.89C512,25.61,486.39,0,455.11,0z M455.11,455.11H56.89V56.89h398.22V455.11z M113.78,199.11
		h56.89v199.11h-56.89V199.11z M227.56,113.78h56.89v284.44h-56.89V113.78z M341.33,284.44h56.89v113.78h-56.89V284.44z"/>
</g>
</svg>
