<?xml version="1.0" encoding="utf-8"?>
<!-- Generator: Adobe Illustrator 24.1.1, SVG Export Plug-In . SVG Version: 6.00 Build 0)  -->
<svg version="1.1" id="Layer_1" xmlns="http://www.w3.org/2000/svg" xmlns:xlink="http://www.w3.org/1999/xlink" x="0px" y="0px"
	 viewBox="0 0 512 512" style="enable-background:new 0 0 512 512;" xml:space="preserve">
<g>
	<path d="M358.4,409.6c14.1,0,25.6-11.5,25.6-25.6v-76.8c0-14.1-11.5-25.6-25.6-25.6c-14.1,0-25.6,11.5-25.6,25.6V384
		C332.8,398.1,344.3,409.6,358.4,409.6z"/>
	<path d="M36,151.4L36,151.4l220-97.8l220,97.8c12.9,5.7,28-0.1,33.8-13c5.7-12.9-0.1-28-13-33.8L266.4,2.2
		c-6.6-2.9-14.2-2.9-20.8,0L15.2,104.6c-12.9,5.7-18.7,20.9-13,33.8C8,151.3,23.1,157.1,36,151.4z"/>
	<path d="M153.6,409.6c14.1,0,25.6-11.5,25.6-25.6v-76.8c0-14.1-11.5-25.6-25.6-25.6c-14.1,0-25.6,11.5-25.6,25.6V384
		C128,398.1,139.5,409.6,153.6,409.6z"/>
	<path d="M256,409.6c14.1,0,25.6-11.5,25.6-25.6v-76.8c0-14.1-11.5-25.6-25.6-25.6c-14.1,0-25.6,11.5-25.6,25.6V384
		C230.4,398.1,241.9,409.6,256,409.6z"/>
	<path d="M486.4,230.4c14.1,0,25.6-11.5,25.6-25.6c0-14.1-11.5-25.6-25.6-25.6h-25.6H51.2H25.6C11.5,179.2,0,190.7,0,204.8
		c0,14.1,11.5,25.6,25.6,25.6v230.4C11.5,460.8,0,472.3,0,486.4C0,500.5,11.5,512,25.6,512h25.6h409.6h25.6
		c14.1,0,25.6-11.5,25.6-25.6c0-14.1-11.5-25.6-25.6-25.6h0L486.4,230.4L486.4,230.4z M435.2,460.8H76.8l0-230.4h358.4V460.8z"/>
</g>
</svg>
